<svg xmlns="http://www.w3.org/2000/svg" width="160" height="32" viewBox="0 0 160 32">
    <g fill="none" fill-rule="evenodd">
        <g>
            <g>
                <path d="M0 0H160V32H0z" transform="translate(-1254 -1031) translate(1254 1031)"/>
                <path fill="#FFB019" d="M15.553 23.235l-6.06 3.186c-.47.247-1.05.066-1.297-.403-.098-.187-.132-.4-.096-.609l1.157-6.748c.054-.312-.05-.63-.276-.85l-4.903-4.78c-.38-.37-.387-.977-.017-1.357.147-.151.34-.25.55-.28l6.775-.985c.313-.045.583-.241.723-.525l3.03-6.14c.235-.475.81-.67 1.286-.436.19.094.342.247.436.436l3.03 6.14c.14.284.41.48.723.525l6.776.985c.525.076.888.563.812 1.088-.03.21-.129.402-.28.55l-4.903 4.779c-.226.22-.33.538-.276.85l1.157 6.748c.09.523-.261 1.019-.784 1.109-.208.035-.422.001-.609-.097l-6.06-3.186c-.28-.147-.614-.147-.894 0zM47.553 23.235l-6.06 3.186c-.47.247-1.05.066-1.297-.403-.098-.187-.132-.4-.096-.609l1.157-6.748c.054-.312-.05-.63-.276-.85l-4.903-4.78c-.38-.37-.387-.977-.017-1.357.147-.151.34-.25.55-.28l6.775-.985c.313-.045.583-.241.723-.525l3.03-6.14c.235-.475.81-.67 1.286-.436.19.094.342.247.436.436l3.03 6.14c.14.284.41.48.723.525l6.776.985c.525.076.888.563.812 1.088-.03.21-.129.402-.28.55l-4.903 4.779c-.226.22-.33.538-.276.85l1.157 6.748c.09.523-.261 1.019-.784 1.109-.208.035-.422.001-.609-.097l-6.06-3.186c-.28-.147-.614-.147-.894 0zM79.553 23.235l-6.06 3.186c-.47.247-1.05.066-1.297-.403-.098-.187-.132-.4-.096-.609l1.157-6.748c.054-.312-.05-.63-.276-.85l-4.903-4.78c-.38-.37-.387-.977-.017-1.357.147-.151.34-.25.55-.28l6.775-.985c.313-.045.583-.241.723-.525l3.03-6.14c.235-.475.81-.67 1.286-.436.19.094.342.247.436.436l3.03 6.14c.14.284.41.48.723.525l6.776.985c.525.076.888.563.812 1.088-.03.21-.129.402-.28.55l-4.903 4.779c-.226.22-.33.538-.276.85l1.157 6.748c.09.523-.261 1.019-.784 1.109-.208.035-.422.001-.609-.097l-6.06-3.186c-.28-.147-.614-.147-.894 0zM111.553 23.235l-6.06 3.186c-.47.247-1.05.066-1.297-.403-.098-.187-.132-.4-.096-.609l1.157-6.748c.054-.312-.05-.63-.276-.85l-4.903-4.78c-.38-.37-.387-.977-.017-1.357.147-.151.34-.25.55-.28l6.775-.985c.313-.045.583-.241.723-.525l3.03-6.14c.235-.475.81-.67 1.286-.436.19.094.342.247.436.436l3.03 6.14c.14.284.41.48.723.525l6.776.985c.525.076.888.563.812 1.088-.03.21-.129.402-.28.55l-4.903 4.779c-.226.22-.33.538-.276.85l1.157 6.748c.09.523-.261 1.019-.784 1.109-.208.035-.422.001-.609-.097l-6.06-3.186c-.28-.147-.614-.147-.894 0zM143.553 23.235l-6.06 3.186c-.47.247-1.05.066-1.297-.403-.098-.187-.132-.4-.096-.609l1.157-6.748c.054-.312-.05-.63-.276-.85l-4.903-4.78c-.38-.37-.387-.977-.017-1.357.147-.151.34-.25.55-.28l6.775-.985c.313-.045.583-.241.723-.525l3.03-6.14c.235-.475.81-.67 1.286-.436.19.094.342.247.436.436l3.03 6.14c.14.284.41.48.723.525l6.776.985c.525.076.888.563.812 1.088-.03.21-.129.402-.28.55l-4.903 4.779c-.226.22-.33.538-.276.85l1.157 6.748c.09.523-.261 1.019-.784 1.109-.208.035-.422.001-.609-.097l-6.06-3.186c-.28-.147-.614-.147-.894 0z" transform="translate(-1254 -1031) translate(1254 1031)"/>
            </g>
        </g>
    </g>
</svg>
