<svg id="logo_color" xmlns="http://www.w3.org/2000/svg" xmlns:xlink="http://www.w3.org/1999/xlink" width="240" height="29" viewBox="0 0 240 29">
  <defs>
    <clipPath id="clip-path">
      <rect id="사각형_73" data-name="사각형 73" width="4.304" height="16.196" fill="none"/>
    </clipPath>
    <linearGradient id="linear-gradient" x1="-16.457" y1="1" x2="-16.391" y2="1" gradientUnits="objectBoundingBox">
      <stop offset="0" stop-color="#003c87"/>
      <stop offset="1" stop-color="#30b3eb"/>
    </linearGradient>
    <clipPath id="clip-path-2">
      <path id="패스_185" data-name="패스 185" d="M330.535,45.845v3.373h5.415V62.041h4.3V49.218h5.416V45.845Z" transform="translate(-330.535 -45.845)" fill="none"/>
    </clipPath>
    <linearGradient id="linear-gradient-2" x1="-6.2" x2="-6.182" xlink:href="#linear-gradient"/>
    <clipPath id="clip-path-3">
      <path id="패스_186" data-name="패스 186" d="M280.881,45.845c-3.079,0-5.575,1.777-5.575,4.892s2.5,4.892,5.575,4.892h3.7c.955,0,1.73.395,1.73,1.52s-.775,1.518-1.73,1.518H275.9v3.374h9.086c3.079,0,5.574-1.772,5.574-4.89s-2.5-4.9-5.574-4.9h-3.6c-.955,0-1.73-.395-1.73-1.519s.775-1.52,1.73-1.52h7.737V45.845Z" transform="translate(-275.306 -45.845)" fill="none"/>
    </clipPath>
    <linearGradient id="linear-gradient-3" x1="-5.123" x2="-5.104" xlink:href="#linear-gradient"/>
    <clipPath id="clip-path-4">
      <path id="패스_187" data-name="패스 187" d="M151.038,45.845,144.949,60.42l-5.8-6.477,7.258-8.1h-4.917l-6.878,7.689V45.845h-4.3v16.2h4.3V54.352l6.878,7.689h7.161l4.93-12.215,3.58,8.981h-5.691l1.351,3.234h10.066l-6.767-16.2Z" transform="translate(-130.304 -45.845)" fill="none"/>
    </clipPath>
    <linearGradient id="linear-gradient-4" x1="-1.136" x2="-1.127" xlink:href="#linear-gradient"/>
    <clipPath id="clip-path-5">
      <path id="패스_188" data-name="패스 188" d="M463.082,56.04V51.846a2.325,2.325,0,0,1,2.322-2.322H469.6a2.325,2.325,0,0,1,2.322,2.322V56.04a2.325,2.325,0,0,1-2.322,2.322H465.4a2.325,2.325,0,0,1-2.322-2.322m2.322-10.2a6,6,0,0,0-6,6V56.04a6,6,0,0,0,6,6H469.6a6,6,0,0,0,6-6V51.846a6,6,0,0,0-6-6Z" transform="translate(-459.402 -45.845)" fill="none"/>
    </clipPath>
    <linearGradient id="linear-gradient-5" x1="-8.053" x2="-8.035" xlink:href="#linear-gradient"/>
    <clipPath id="clip-path-6">
      <path id="패스_189" data-name="패스 189" d="M409.835,45.842V52.1h-6.527V45.842H399v16.2h4.3V55.78h6.527v6.258h4.3v-16.2Z" transform="translate(-399.004 -45.842)" fill="none"/>
    </clipPath>
    <linearGradient id="linear-gradient-6" x1="-7.485" x2="-7.466" xlink:href="#linear-gradient"/>
    <linearGradient id="linear-gradient-7" x1="-42.365" x2="-42.299" xlink:href="#linear-gradient"/>
    <clipPath id="clip-path-8">
      <path id="패스_190" data-name="패스 190" d="M681.083,45.842V55.6l-6.526-9.761h-4.3v16.2h4.3V52.277l6.526,9.761h4.3v-16.2Z" transform="translate(-670.253 -45.842)" fill="none"/>
    </clipPath>
    <linearGradient id="linear-gradient-8" x1="-12.574" x2="-12.555" xlink:href="#linear-gradient"/>
    <clipPath id="clip-path-9">
      <path id="패스_191" data-name="패스 191" d="M799.648,44.72c-3.079,0-5.575,1.777-5.575,4.893s2.5,4.892,5.575,4.892h3.7c.955,0,1.729.395,1.729,1.52s-.774,1.518-1.729,1.518h-8.678v3.375h9.086c3.079,0,5.574-1.772,5.574-4.89s-2.5-4.9-5.574-4.9h-3.6c-.955,0-1.73-.395-1.73-1.519s.775-1.52,1.73-1.52h7.736V44.72Z" transform="translate(-794.073 -44.72)" fill="none"/>
    </clipPath>
    <linearGradient id="linear-gradient-9" x1="-14.776" y1="1.02" x2="-14.758" y2="1.02" xlink:href="#linear-gradient"/>
    <clipPath id="clip-path-10">
      <path id="패스_192" data-name="패스 192" d="M736.29,45.838a6,6,0,0,0-6,6.005v4.193a6,6,0,0,0,6,6h4.2a6.006,6.006,0,0,0,5.971-5.408,5.54,5.54,0,0,0,.028-.59V54.808h.007V53.225h-6.929v3.4h3.166a2.324,2.324,0,0,1-2.243,1.729h-4.2a2.323,2.323,0,0,1-2.319-2.319V51.843a2.324,2.324,0,0,1,2.319-2.326h4.2a2.317,2.317,0,0,1,2.291,1.972h3.7a6.008,6.008,0,0,0-5.991-5.651Z" transform="translate(-730.292 -45.838)" fill="none"/>
    </clipPath>
    <linearGradient id="linear-gradient-10" x1="-12.796" x2="-12.778" xlink:href="#linear-gradient"/>
    <clipPath id="clip-path-11">
      <path id="패스_193" data-name="패스 193" d="M583.544,49.525H589a2.324,2.324,0,0,1,2.322,2.322v4.193A2.324,2.324,0,0,1,589,58.361h-5.453Zm-3.68-3.68v16.2H589a6,6,0,0,0,6-6V51.846a6,6,0,0,0-6-6Z" transform="translate(-579.864 -45.845)" fill="none"/>
    </clipPath>
    <linearGradient id="linear-gradient-11" x1="-10.878" x2="-10.859" xlink:href="#linear-gradient"/>
    <clipPath id="clip-path-12">
      <path id="패스_194" data-name="패스 194" d="M523.541,45.845v16.2h13.978v-3.68h-9.674V45.845Z" transform="translate(-523.541 -45.845)" fill="none"/>
    </clipPath>
    <linearGradient id="linear-gradient-12" x1="-10.634" x2="-10.614" xlink:href="#linear-gradient"/>
    <clipPath id="clip-path-13">
      <rect id="사각형_86" data-name="사각형 86" width="240" height="29" fill="none"/>
    </clipPath>
    <clipPath id="clip-path-14">
      <path id="패스_198" data-name="패스 198" d="M106.053,17.664a28.16,28.16,0,0,0-.955,5.389,22.407,22.407,0,0,0,1.906-4.7,28.2,28.2,0,0,0,.955-5.389,22.415,22.415,0,0,0-1.906,4.7" transform="translate(-105.098 -12.968)" fill="none"/>
    </clipPath>
    <clipPath id="clip-path-16">
      <path id="패스_203" data-name="패스 203" d="M99.223,11.11a39.43,39.43,0,0,0,.736,6.791,31.41,31.41,0,0,0,.5-6.311A39.431,39.431,0,0,0,99.723,4.8a31.392,31.392,0,0,0-.5,6.311" transform="translate(-99.218 -4.799)" fill="none"/>
    </clipPath>
    <clipPath id="clip-path-18">
      <path id="패스_208" data-name="패스 208" d="M84.8,7.942a52.749,52.749,0,0,0,2.988,7.848,43.429,43.429,0,0,0-1.52-7.726A52.718,52.718,0,0,0,83.279.216,43.48,43.48,0,0,0,84.8,7.942" transform="translate(-83.279 -0.216)" fill="none"/>
    </clipPath>
    <clipPath id="clip-path-20">
      <path id="패스_213" data-name="패스 213" d="M67.088,9.891a65.58,65.58,0,0,0,5.725,8.29A56.945,56.945,0,0,0,68.689,9.5a65.579,65.579,0,0,0-5.725-8.289,56.956,56.956,0,0,0,4.124,8.68" transform="translate(-62.964 -1.211)" fill="none"/>
    </clipPath>
    <clipPath id="clip-path-22">
      <path id="패스_218" data-name="패스 218" d="M48.9,18.694a74.949,74.949,0,0,0,8.775,7.817,68.812,68.812,0,0,0-7.2-8.869A74.972,74.972,0,0,0,41.7,9.825a68.853,68.853,0,0,0,7.2,8.869" transform="translate(-41.702 -9.825)" fill="none"/>
    </clipPath>
    <clipPath id="clip-path-24">
      <path id="패스_223" data-name="패스 223" d="M32.442,35.862A79.288,79.288,0,0,0,44.306,42a76.6,76.6,0,0,0-10.534-7.97,79.259,79.259,0,0,0-11.864-6.137,76.646,76.646,0,0,0,10.534,7.969" transform="translate(-21.908 -27.893)" fill="none"/>
    </clipPath>
    <clipPath id="clip-path-26">
      <path id="패스_227" data-name="패스 227" d="M20.527,62.4a79.357,79.357,0,0,0,14.6,3,79.318,79.318,0,0,0-13.782-5.677,79.317,79.317,0,0,0-14.6-3A79.347,79.347,0,0,0,20.527,62.4" transform="translate(-6.745 -56.725)" fill="none"/>
    </clipPath>
    <clipPath id="clip-path-28">
      <path id="패스_231" data-name="패스 231" d="M0,92.32a78.585,78.585,0,0,0,32.976,0A78.6,78.6,0,0,0,0,92.32" transform="translate(0 -90.571)" fill="none"/>
    </clipPath>
  </defs>
  <g id="그룹_170" data-name="그룹 170" transform="translate(70.623 12.804)">
    <g id="그룹_169" data-name="그룹 169" clip-path="url(#clip-path)">
      <rect id="사각형_72" data-name="사각형 72" width="4.304" height="16.196" transform="translate(0)" fill="url(#linear-gradient)"/>
    </g>
  </g>
  <g id="그룹_172" data-name="그룹 172" transform="translate(93.55 12.804)">
    <g id="그룹_171" data-name="그룹 171" clip-path="url(#clip-path-2)">
      <rect id="사각형_74" data-name="사각형 74" width="15.135" height="16.196" fill="url(#linear-gradient-2)"/>
    </g>
  </g>
  <g id="그룹_174" data-name="그룹 174" transform="translate(77.918 12.804)">
    <g id="그룹_173" data-name="그룹 173" clip-path="url(#clip-path-3)">
      <rect id="사각형_75" data-name="사각형 75" width="15.258" height="16.196" transform="translate(0)" fill="url(#linear-gradient-3)"/>
    </g>
  </g>
  <g id="그룹_176" data-name="그룹 176" transform="translate(36.87 12.804)">
    <g id="그룹_175" data-name="그룹 175" clip-path="url(#clip-path-4)">
      <rect id="사각형_76" data-name="사각형 76" width="32.579" height="16.196" transform="translate(0)" fill="url(#linear-gradient-4)"/>
    </g>
  </g>
  <g id="그룹_178" data-name="그룹 178" transform="translate(130.021 12.804)">
    <g id="그룹_177" data-name="그룹 177" clip-path="url(#clip-path-5)">
      <rect id="사각형_77" data-name="사각형 77" width="16.197" height="16.196" transform="translate(0)" fill="url(#linear-gradient-5)"/>
    </g>
  </g>
  <g id="그룹_180" data-name="그룹 180" transform="translate(112.928 12.803)">
    <g id="그룹_179" data-name="그룹 179" clip-path="url(#clip-path-6)">
      <rect id="사각형_78" data-name="사각형 78" width="15.135" height="16.196" transform="translate(0 0)" fill="url(#linear-gradient-6)"/>
    </g>
  </g>
  <g id="그룹_182" data-name="그룹 182" transform="translate(181.798 12.804)">
    <g id="그룹_181" data-name="그룹 181" clip-path="url(#clip-path)">
      <rect id="사각형_79" data-name="사각형 79" width="4.304" height="16.196" fill="url(#linear-gradient-7)"/>
    </g>
  </g>
  <g id="그룹_184" data-name="그룹 184" transform="translate(189.588 12.803)">
    <g id="그룹_183" data-name="그룹 183" clip-path="url(#clip-path-8)">
      <rect id="사각형_81" data-name="사각형 81" width="15.134" height="16.196" transform="translate(0 0)" fill="url(#linear-gradient-8)"/>
    </g>
  </g>
  <g id="그룹_186" data-name="그룹 186" transform="translate(224.742 12.484)">
    <g id="그룹_185" data-name="그룹 185" clip-path="url(#clip-path-9)">
      <rect id="사각형_82" data-name="사각형 82" width="15.257" height="16.197" transform="translate(0 0)" fill="url(#linear-gradient-9)"/>
    </g>
  </g>
  <g id="그룹_188" data-name="그룹 188" transform="translate(206.634 12.802)">
    <g id="그룹_187" data-name="그룹 187" clip-path="url(#clip-path-10)">
      <rect id="사각형_83" data-name="사각형 83" width="16.204" height="16.197" transform="translate(0 0)" fill="url(#linear-gradient-10)"/>
    </g>
  </g>
  <g id="그룹_190" data-name="그룹 190" transform="translate(164.116 12.804)">
    <g id="그룹_189" data-name="그룹 189" clip-path="url(#clip-path-11)">
      <rect id="사각형_84" data-name="사각형 84" width="15.135" height="16.196" transform="translate(0 0)" fill="url(#linear-gradient-11)"/>
    </g>
  </g>
  <g id="그룹_192" data-name="그룹 192" transform="translate(148.178 12.804)">
    <g id="그룹_191" data-name="그룹 191" clip-path="url(#clip-path-12)">
      <rect id="사각형_85" data-name="사각형 85" width="13.978" height="16.196" transform="translate(0)" fill="url(#linear-gradient-12)"/>
    </g>
  </g>
  <g id="그룹_194" data-name="그룹 194">
    <g id="그룹_193" data-name="그룹 193" clip-path="url(#clip-path-13)">
      <path id="패스_195" data-name="패스 195" d="M107.95,12.968a22.176,22.176,0,0,0-1.9,4.662,27.842,27.842,0,0,0-.952,5.349,22.176,22.176,0,0,0,1.9-4.662,27.863,27.863,0,0,0,.952-5.349" transform="translate(-75.347 -9.313)" fill="#30b3eb"/>
      <path id="패스_196" data-name="패스 196" d="M107.95,12.968a22.176,22.176,0,0,0-1.9,4.662,27.842,27.842,0,0,0-.952,5.349,22.176,22.176,0,0,0,1.9-4.662,27.863,27.863,0,0,0,.952-5.349" transform="translate(-75.347 -9.313)" fill="#30b3eb"/>
    </g>
  </g>
  <g id="그룹_196" data-name="그룹 196" transform="translate(29.839 3.682)">
    <g id="그룹_195" data-name="그룹 195" clip-path="url(#clip-path-14)">
      <path id="패스_197" data-name="패스 197" d="M107.234,12.442l-2.86,10.085-.951-.692,2.86-10.085Z" transform="translate(-103.898 -12.095)" fill="#30b3eb"/>
    </g>
  </g>
  <g id="그룹_198" data-name="그룹 198">
    <g id="그룹_197" data-name="그룹 197" clip-path="url(#clip-path-13)">
      <path id="패스_199" data-name="패스 199" d="M107.95,12.968a22.176,22.176,0,0,0-1.9,4.662,27.842,27.842,0,0,0-.952,5.349,22.176,22.176,0,0,0,1.9-4.662,27.863,27.863,0,0,0,.952-5.349" transform="translate(-75.347 -9.313)" fill="#30b3eb"/>
      <path id="패스_200" data-name="패스 200" d="M99.721,4.8a31.028,31.028,0,0,0-.5,6.265,38.974,38.974,0,0,0,.734,6.741,31.048,31.048,0,0,0,.5-6.265A38.98,38.98,0,0,0,99.721,4.8" transform="translate(-71.131 -3.446)" fill="#24a6e2"/>
      <path id="패스_201" data-name="패스 201" d="M99.721,4.8a31.028,31.028,0,0,0-.5,6.265,38.974,38.974,0,0,0,.734,6.741,31.048,31.048,0,0,0,.5-6.265A38.98,38.98,0,0,0,99.721,4.8" transform="translate(-71.131 -3.446)" fill="#24a6e2"/>
    </g>
  </g>
  <g id="그룹_200" data-name="그룹 200" transform="translate(28.169 1.362)">
    <g id="그룹_199" data-name="그룹 199" clip-path="url(#clip-path-16)">
      <path id="패스_202" data-name="패스 202" d="M100.056,4.434l.237,13.1-1.235-.48-.237-13.1Z" transform="translate(-98.933 -4.194)" fill="#24a6e2"/>
    </g>
  </g>
  <g id="그룹_202" data-name="그룹 202">
    <g id="그룹_201" data-name="그룹 201" clip-path="url(#clip-path-13)">
      <path id="패스_204" data-name="패스 204" d="M99.721,4.8a31.028,31.028,0,0,0-.5,6.265,38.974,38.974,0,0,0,.734,6.741,31.048,31.048,0,0,0,.5-6.265A38.98,38.98,0,0,0,99.721,4.8" transform="translate(-71.131 -3.446)" fill="#24a6e2"/>
      <path id="패스_205" data-name="패스 205" d="M83.279.215a42.992,42.992,0,0,0,1.515,7.67,52.247,52.247,0,0,0,2.979,7.791,42.971,42.971,0,0,0-1.515-7.67A52.229,52.229,0,0,0,83.279.215" transform="translate(-59.704 -0.154)" fill="#1898d8"/>
      <path id="패스_206" data-name="패스 206" d="M83.279.215a42.992,42.992,0,0,0,1.515,7.67,52.247,52.247,0,0,0,2.979,7.791,42.971,42.971,0,0,0-1.515-7.67A52.229,52.229,0,0,0,83.279.215" transform="translate(-59.704 -0.154)" fill="#1898d8"/>
    </g>
  </g>
  <g id="그룹_204" data-name="그룹 204" transform="translate(23.644 0.061)">
    <g id="그룹_203" data-name="그룹 203" clip-path="url(#clip-path-18)">
      <path id="패스_207" data-name="패스 207" d="M82.161.122,86.668,15.7,85.2,15.574,80.692,0Z" transform="translate(-81.427 -0.061)" fill="#1898d8"/>
    </g>
  </g>
  <g id="그룹_206" data-name="그룹 206">
    <g id="그룹_205" data-name="그룹 205" clip-path="url(#clip-path-13)">
      <path id="패스_209" data-name="패스 209" d="M83.279.215a42.992,42.992,0,0,0,1.515,7.67,52.247,52.247,0,0,0,2.979,7.791,42.971,42.971,0,0,0-1.515-7.67A52.229,52.229,0,0,0,83.279.215" transform="translate(-59.704 -0.154)" fill="#1898d8"/>
      <path id="패스_210" data-name="패스 210" d="M62.964,1.211a56.393,56.393,0,0,0,4.112,8.617,65.065,65.065,0,0,0,5.708,8.229A56.4,56.4,0,0,0,68.672,9.44a65.062,65.062,0,0,0-5.708-8.229" transform="translate(-45.14 -0.87)" fill="#0582c4"/>
      <path id="패스_211" data-name="패스 211" d="M62.964,1.211a56.393,56.393,0,0,0,4.112,8.617,65.065,65.065,0,0,0,5.708,8.229A56.4,56.4,0,0,0,68.672,9.44a65.062,65.062,0,0,0-5.708-8.229" transform="translate(-45.14 -0.87)" fill="#0582c4"/>
    </g>
  </g>
  <g id="그룹_208" data-name="그룹 208" transform="translate(17.876 0.344)">
    <g id="그룹_207" data-name="그룹 207" clip-path="url(#clip-path-20)">
      <path id="패스_212" data-name="패스 212" d="M61.747.523,71.6,17.493l-1.6.391L60.146.914Z" transform="translate(-60.946 -0.718)" fill="#0582c4"/>
    </g>
  </g>
  <g id="그룹_210" data-name="그룹 210">
    <g id="그룹_209" data-name="그룹 209" clip-path="url(#clip-path-13)">
      <path id="패스_214" data-name="패스 214" d="M62.964,1.211a56.393,56.393,0,0,0,4.112,8.617,65.065,65.065,0,0,0,5.708,8.229A56.4,56.4,0,0,0,68.672,9.44a65.062,65.062,0,0,0-5.708-8.229" transform="translate(-45.14 -0.87)" fill="#0582c4"/>
      <path id="패스_215" data-name="패스 215" d="M41.7,9.825a68.415,68.415,0,0,0,7.181,8.8,74.621,74.621,0,0,0,8.75,7.76,68.415,68.415,0,0,0-7.181-8.8,74.624,74.624,0,0,0-8.75-7.76" transform="translate(-29.897 -7.056)" fill="#0072b5"/>
      <path id="패스_216" data-name="패스 216" d="M41.7,9.825a68.415,68.415,0,0,0,7.181,8.8,74.621,74.621,0,0,0,8.75,7.76,68.415,68.415,0,0,0-7.181-8.8,74.624,74.624,0,0,0-8.75-7.76" transform="translate(-29.897 -7.056)" fill="#0072b5"/>
    </g>
  </g>
  <g id="그룹_212" data-name="그룹 212" transform="translate(11.84 2.789)">
    <g id="그룹_211" data-name="그룹 211" clip-path="url(#clip-path-22)">
      <path id="패스_217" data-name="패스 217" d="M40.5,7.973,56.482,24.659,54.909,25.71,38.931,9.024Z" transform="translate(-39.718 -8.499)" fill="#0072b5"/>
    </g>
  </g>
  <g id="그룹_214" data-name="그룹 214">
    <g id="그룹_213" data-name="그룹 213" clip-path="url(#clip-path-13)">
      <path id="패스_219" data-name="패스 219" d="M41.7,9.825a68.415,68.415,0,0,0,7.181,8.8,74.621,74.621,0,0,0,8.75,7.76,68.415,68.415,0,0,0-7.181-8.8,74.624,74.624,0,0,0-8.75-7.76" transform="translate(-29.897 -7.056)" fill="#0072b5"/>
      <path id="패스_220" data-name="패스 220" d="M21.908,27.893a76.41,76.41,0,0,0,10.5,7.912A79.18,79.18,0,0,0,44.24,41.9a76.378,76.378,0,0,0-10.5-7.911,79.136,79.136,0,0,0-11.829-6.092" transform="translate(-15.706 -20.031)" fill="#005da4"/>
      <path id="패스_221" data-name="패스 221" d="M21.908,27.893a76.41,76.41,0,0,0,10.5,7.912A79.18,79.18,0,0,0,44.24,41.9a76.378,76.378,0,0,0-10.5-7.911,79.136,79.136,0,0,0-11.829-6.092" transform="translate(-15.706 -20.031)" fill="#005da4"/>
    </g>
  </g>
  <g id="그룹_216" data-name="그룹 216" transform="translate(6.22 7.808)">
    <g id="그룹_215" data-name="그룹 215" clip-path="url(#clip-path-24)">
      <path id="패스_222" data-name="패스 222" d="M20.9,24.666l22.4,14.107L41.964,40.6,19.566,26.5Z" transform="translate(-20.231 -25.582)" fill="#005da4"/>
    </g>
  </g>
  <g id="그룹_218" data-name="그룹 218">
    <g id="그룹_217" data-name="그룹 217" clip-path="url(#clip-path-13)">
      <path id="패스_224" data-name="패스 224" d="M21.908,27.893a76.41,76.41,0,0,0,10.5,7.912A79.18,79.18,0,0,0,44.24,41.9a76.378,76.378,0,0,0-10.5-7.911,79.136,79.136,0,0,0-11.829-6.092" transform="translate(-15.706 -20.031)" fill="#005da4"/>
      <path id="패스_225" data-name="패스 225" d="M6.745,56.725A79.287,79.287,0,0,0,20.486,62.36a79.394,79.394,0,0,0,14.557,2.979A79.257,79.257,0,0,0,21.3,59.7,79.365,79.365,0,0,0,6.745,56.725" transform="translate(-4.836 -40.737)" fill="#004f97"/>
      <path id="패스_226" data-name="패스 226" d="M6.745,56.725A79.287,79.287,0,0,0,20.486,62.36a79.394,79.394,0,0,0,14.557,2.979A79.257,79.257,0,0,0,21.3,59.7,79.365,79.365,0,0,0,6.745,56.725" transform="translate(-4.836 -40.737)" fill="#004f97"/>
    </g>
  </g>
  <g id="그룹_220" data-name="그룹 220" transform="translate(1.915 15.938)">
    <g id="그룹_219" data-name="그룹 219" clip-path="url(#clip-path-26)">
      <rect id="사각형_93" data-name="사각형 93" width="2.798" height="29.679" transform="translate(-0.409 1.338) rotate(-73)" fill="#004f97"/>
    </g>
  </g>
  <g id="그룹_222" data-name="그룹 222">
    <g id="그룹_221" data-name="그룹 221" clip-path="url(#clip-path-13)">
      <path id="패스_228" data-name="패스 228" d="M6.745,56.725A79.287,79.287,0,0,0,20.486,62.36a79.394,79.394,0,0,0,14.557,2.979A79.257,79.257,0,0,0,21.3,59.7,79.365,79.365,0,0,0,6.745,56.725" transform="translate(-4.836 -40.737)" fill="#004f97"/>
      <path id="패스_229" data-name="패스 229" d="M0,92.307a78.7,78.7,0,0,0,32.88,0,78.689,78.689,0,0,0-32.88,0" transform="translate(0 -65.044)" fill="#003c87"/>
      <path id="패스_230" data-name="패스 230" d="M0,92.307a78.7,78.7,0,0,0,32.88,0,78.689,78.689,0,0,0-32.88,0" transform="translate(0 -65.044)" fill="#003c87"/>
    </g>
  </g>
  <g id="그룹_224" data-name="그룹 224" transform="translate(0 25.502)">
    <g id="그룹_223" data-name="그룹 223" clip-path="url(#clip-path-28)">
      <rect id="사각형_95" data-name="사각형 95" width="32.976" height="3.498" fill="#003c87"/>
    </g>
  </g>
  <g id="그룹_226" data-name="그룹 226">
    <g id="그룹_225" data-name="그룹 225" clip-path="url(#clip-path-13)">
      <path id="패스_232" data-name="패스 232" d="M0,92.307a78.7,78.7,0,0,0,32.88,0,78.689,78.689,0,0,0-32.88,0" transform="translate(0 -65.044)" fill="#003c87"/>
    </g>
  </g>
</svg>
